<svg xmlns="http://www.w3.org/2000/svg" version="1.1" xmlns:xlink="http://www.w3.org/1999/xlink" xmlns:svgjs="http://svgjs.dev/svgjs" width="1920" height="1080" preserveAspectRatio="none" viewBox="0 0 1920 1080"><g mask="url(&quot;#SvgjsMask1166&quot;)" fill="none"><rect width="1920" height="1080" x="0" y="0" fill="rgba(124, 4, 4, 1)"></rect><path d="M0,534.66C97.842,550.478,191.281,477.502,262.724,408.807C327.171,346.839,337.371,252.314,376.995,172.168C418.24,88.743,500.831,21.115,500.408,-71.948C499.972,-167.986,438.346,-252.757,374.737,-324.711C311.565,-396.171,234.189,-460.404,140.627,-478.932C50.277,-496.824,-35.047,-446.036,-124.365,-423.549C-217.975,-399.981,-320.06,-402.469,-396.617,-343.671C-481.242,-278.677,-550.699,-186.923,-569.273,-81.849C-588.064,24.45,-567.945,145.394,-497.534,227.216C-430.312,305.332,-300.938,277.677,-213.268,331.852C-128.089,384.487,-98.846,518.679,0,534.66" fill="#510303"></path><path d="M1920 1767.839C2046.575 1768.075 2125.768 1633.664 2226.9139999999998 1557.568 2319.536 1487.885 2443.693 1446.537 2488.923 1339.818 2533.908 1233.675 2498.656 1111.44 2462.366 1002.019 2430.415 905.681 2349.912 840.425 2294.987 755.072 2228.523 651.788 2220.504 491.24199999999996 2105.66 447.701 1992.299 404.722 1879.818 513.556 1765.667 554.39 1659.203 592.4739999999999 1536.818 598.6279999999999 1457.758 679.4649999999999 1376.9650000000001 762.0740000000001 1350.835 881.429 1334.012 995.748 1317.145 1110.364 1309.534 1231.507 1361.2649999999999 1335.166 1412.275 1437.3809999999999 1523.498 1486.484 1613.819 1556.4270000000001 1713.908 1633.934 1793.41 1767.603 1920 1767.839" fill="#a70505"></path></g><defs><mask id="SvgjsMask1166"><rect width="1920" height="1080" fill="#ffffff"></rect></mask></defs></svg>