<svg xmlns="http://www.w3.org/2000/svg" version="1.1" xmlns:xlink="http://www.w3.org/1999/xlink" xmlns:svgjs="http://svgjs.dev/svgjs" width="1920" height="1080" preserveAspectRatio="none" viewBox="0 0 1920 1080"><g mask="url(&quot;#SvgjsMask1235&quot;)" fill="none"><rect width="1920" height="1080" x="0" y="0" fill="rgba(186, 46, 46, 1)"></rect><path d="M0,702.843C129.629,680.75,184.073,526.315,281.449,437.943C359.392,367.208,460.88,325.439,515.2,235.284C573.386,138.712,616.679,25.181,597.037,-85.841C577.592,-195.752,491.046,-278.408,410.624,-355.808C336.02,-427.609,247.509,-476.916,151.196,-514.928C46.49,-556.253,-61.658,-608.058,-171.992,-585.752C-285.744,-562.755,-367.654,-471.115,-453.236,-392.731C-549.362,-304.69,-682.836,-229.868,-701.423,-100.849C-720.01,28.171,-607.873,134.642,-545.715,249.22C-488.145,355.341,-443.529,468.503,-350.686,545.679C-250.141,629.257,-128.888,724.809,0,702.843" fill="#9c2727"></path><path d="M1920 1539.8C2007.656 1536.076 2097.526 1517.6970000000001 2166.202 1463.098 2232.001 1410.786 2249.384 1322.762 2287.3360000000002 1247.757 2327.1530000000002 1169.066 2381.463 1098.978 2394.574 1011.767 2410.946 902.861 2435.978 778.076 2371.352 688.9010000000001 2306.534 599.461 2181.423 570.78 2071.097 565.411 1972.443 560.61 1891.505 632.384 1796.955 660.948 1703.406 689.21 1583.529 659.146 1518.719 732.288 1453.943 805.392 1504.521 922.031 1481.504 1016.954 1455.012 1126.207 1333.85 1224.351 1373.933 1329.381 1413.412 1432.829 1556.655 1444.7939999999999 1659.975 1484.607 1744.365 1517.125 1829.644 1543.6390000000001 1920 1539.8" fill="#cf3e3e"></path></g><defs><mask id="SvgjsMask1235"><rect width="1920" height="1080" fill="#ffffff"></rect></mask></defs></svg>